<svg version="1.1" id="Layer_1" xmlns="http://www.w3.org/2000/svg" xmlns:xlink="http://www.w3.org/1999/xlink" x="0px" y="0px"
	 width="100%" viewBox="0 0 1124 533" enable-background="new 0 0 1124 533" xml:space="preserve">
<path fill="#FEFEFE" opacity="1.000000" stroke="none" 
	d="
M658.000000,534.000000 
	C438.666718,534.000000 219.833466,534.000000 1.000147,534.000000 
	C1.000098,356.333466 1.000098,178.666901 1.000049,1.000266 
	C375.666412,1.000177 750.332825,1.000177 1124.999512,1.000089 
	C1124.999634,178.666382 1124.999634,356.332764 1124.999756,533.999573 
	C969.500000,534.000000 814.000000,534.000000 658.000000,534.000000 
M899.308655,241.130859 
	C898.979370,241.699677 898.650146,242.268494 898.132568,243.120239 
	C898.132568,243.120239 897.850464,243.309769 897.299683,243.134018 
	C896.973816,243.712067 896.647949,244.290131 896.153320,245.150650 
	C896.153320,245.150650 895.887634,245.344833 895.265076,245.186691 
	C892.653992,248.550461 889.325378,251.574722 887.547180,255.332581 
	C875.123352,281.587799 875.086121,308.075714 887.458191,334.339569 
	C889.294067,338.236877 893.067322,341.221466 896.199341,344.800293 
	C896.199341,344.800293 896.365784,345.059021 896.197815,345.620239 
	C896.780457,345.960632 897.363098,346.301056 898.197937,346.801483 
	C898.197937,346.801483 898.363770,347.049866 898.208435,347.618286 
	C898.802490,347.955322 899.396545,348.292358 900.229004,348.757446 
	C900.229004,348.757446 900.388916,348.975739 900.271790,349.613373 
	C904.809509,351.988678 909.347290,354.363983 914.628723,356.885681 
	C915.117920,357.011414 915.607117,357.137146 916.134155,357.878296 
	C917.705322,358.221832 919.276489,358.565338 921.644592,358.956085 
	C922.434631,359.067963 923.224609,359.179810 924.196106,359.966705 
	C925.603394,360.415283 927.010254,361.246094 928.418091,361.247803 
	C935.357422,361.256195 942.539124,363.484131 949.804199,359.141907 
	C950.543213,359.085846 951.282166,359.029816 952.497375,359.474396 
	C952.822632,359.533997 953.170288,359.700806 953.469849,359.637909 
	C974.981323,355.125031 987.638489,336.616211 991.480347,317.479462 
	C991.610413,316.831360 989.932007,315.820221 988.156921,314.953674 
	C984.082336,314.973877 980.007690,314.994080 975.591797,314.524292 
	C974.622559,315.420837 973.332947,316.148468 972.752197,317.249908 
	C971.619263,319.398315 971.170837,321.929626 969.925537,323.992462 
	C966.843384,329.097931 963.471741,334.028625 960.153992,339.184265 
	C960.153992,339.184265 959.988770,339.207123 959.400635,339.045807 
	C959.200500,339.475830 959.000427,339.905823 958.563293,340.620087 
	C958.563293,340.620087 958.208740,340.726379 957.626892,340.346191 
	C956.960388,341.037720 956.293945,341.729279 955.071594,342.750092 
	C954.861511,342.797638 954.651428,342.845154 953.855103,342.489685 
	C952.549377,343.235809 951.243652,343.981934 949.292480,344.901031 
	C948.850586,344.954132 948.408691,345.007263 947.553101,344.534698 
	C945.337585,345.251434 943.122070,345.968170 940.035095,346.820465 
	C937.393188,346.788879 934.751343,346.757294 931.893433,346.058533 
	C927.150757,344.225708 922.355530,342.515167 917.686890,340.509979 
	C915.244873,339.461121 913.025146,337.894653 910.534180,336.460419 
	C910.534180,336.460419 910.432800,336.289520 910.737671,335.651337 
	C909.142273,334.127380 907.546814,332.603455 905.964539,331.036469 
	C905.964539,331.036469 905.919556,331.038330 906.036987,330.298096 
	C900.631348,320.661285 897.671326,310.324554 898.063416,299.112335 
	C918.199707,299.102814 938.336060,299.124390 958.472229,299.071045 
	C968.948486,299.043274 979.424255,298.883270 990.297119,299.283051 
	C991.088379,297.961914 992.617493,296.599335 992.546021,295.326660 
	C992.193909,289.058624 991.720825,282.766083 990.733704,276.570923 
	C987.761169,257.915222 979.265503,242.591797 962.186279,233.433243 
	C957.370850,230.851044 951.431030,230.365524 945.215149,228.925690 
	C944.162781,228.854904 943.110352,228.784134 941.797363,228.021515 
	C937.860046,228.254105 933.922668,228.486710 929.172180,228.832138 
	C928.078613,228.879044 926.984985,228.925949 925.408325,228.467026 
	C920.893860,229.714523 916.168823,230.485504 911.930481,232.358002 
	C908.444580,233.897995 905.536255,236.745239 902.203247,239.228775 
	C902.203247,239.228775 901.957031,239.348633 901.395996,239.169037 
	C901.039795,239.744720 900.683655,240.320404 900.133057,241.159348 
	C900.133057,241.159348 899.851257,241.325684 899.308655,241.130859 
M213.958984,307.782501 
	C213.484482,308.386749 213.009979,308.990997 211.916702,309.868896 
	C207.454697,314.442474 202.992691,319.016083 197.907806,323.852844 
	C193.473709,328.414825 189.039627,332.976807 183.982086,337.809723 
	C179.500793,342.404846 175.019485,346.999969 169.907928,351.840820 
	C165.892120,355.635406 161.876328,359.429993 157.429047,363.632294 
	C174.257111,380.251038 190.228668,396.106232 206.306366,411.853088 
	C211.340576,416.783722 216.660721,421.422394 222.068039,426.825043 
	C237.401215,442.266510 252.685867,457.757019 268.154358,473.061737 
	C269.476135,474.369537 272.019745,474.998718 273.998413,475.004272 
	C313.489960,475.115021 352.981934,475.092255 392.473816,475.067108 
	C393.788055,475.066284 395.102081,474.758148 396.237274,474.615723 
	C386.141479,464.152283 376.470795,453.955872 366.609161,443.947632 
	C350.126068,427.219391 333.510254,410.622009 316.971161,393.948853 
	C306.939148,383.835571 296.946320,373.683319 287.513153,363.137207 
	C289.399719,361.045410 291.197998,358.865448 293.185974,356.874939 
	C326.700226,323.317810 360.243958,289.790039 393.741852,256.216644 
	C394.712982,255.243362 395.255188,253.842148 395.997375,252.640442 
	C394.725220,252.174286 393.453766,251.303040 392.180786,251.300751 
	C352.689850,251.230438 313.198578,251.205582 273.708130,251.361420 
	C271.701996,251.369324 269.251770,252.582565 267.771942,254.020462 
	C257.169098,264.322968 246.727615,274.792847 236.309769,285.283905 
	C229.673294,291.967041 223.165115,298.777588 216.035126,305.745209 
	C215.525848,306.351990 215.016571,306.958771 213.958984,307.782501 
M261.569458,69.066307 
	C260.639557,70.020668 259.720520,70.985901 258.778198,71.927826 
	C194.932816,135.747635 131.114395,199.594528 67.162582,263.307526 
	C63.547802,266.908783 63.614975,269.073090 67.135475,272.542114 
	C84.406685,289.560730 101.465538,306.794739 118.618835,323.933197 
	C126.994545,332.301697 126.935745,332.205475 135.226547,323.816620 
	C153.127975,305.703430 171.083191,287.643097 189.083008,269.627686 
	C201.712341,256.987396 214.511169,244.516388 227.127060,231.862869 
	C243.119049,215.823135 258.935486,199.608154 274.950226,183.591354 
	C292.972565,165.566666 311.160889,147.708069 329.223297,129.723312 
	C350.438416,108.599426 371.605652,87.427399 392.754211,66.236893 
	C394.053192,64.935326 395.006744,63.289028 396.801819,60.895317 
	C393.525696,60.895317 391.563019,60.895344 389.600342,60.895309 
	C353.276978,60.894691 316.951050,61.121593 280.632294,60.712593 
	C272.826141,60.624683 266.632355,62.076050 261.569458,69.066307 
M537.191101,275.156128 
	C539.528259,274.432953 543.415955,277.111938 543.964966,272.584930 
	C544.416260,268.863770 544.056946,265.044281 544.056946,260.711487 
	C541.634216,260.711487 539.846130,260.711487 538.058105,260.711487 
	C514.568787,260.711731 491.078613,260.607117 467.590973,260.804993 
	C463.148651,260.842438 461.900421,259.441376 461.958801,255.096710 
	C462.180450,238.607208 462.223267,222.109924 461.940796,205.622269 
	C461.856689,200.713028 463.009186,199.049347 468.255951,199.108627 
	C493.741119,199.396530 519.231689,199.325104 544.719482,199.202301 
	C556.068726,199.147629 554.142456,201.353226 554.491089,188.995041 
	C554.584595,185.681931 553.457825,184.721924 550.201599,184.731354 
	C516.717163,184.828339 483.232086,184.841019 449.747742,184.719040 
	C445.990753,184.705368 445.003174,185.869476 445.011414,189.589844 
	C445.130615,243.565002 445.092957,297.540497 445.094025,351.515930 
	C445.094055,352.515259 444.786896,353.682495 445.198090,354.471802 
	C445.721558,355.476410 446.796844,356.845428 447.695801,356.892944 
	C452.302155,357.136444 456.928314,357.005646 462.049103,357.005646 
	C462.049103,354.552246 462.049103,352.750732 462.049103,350.949249 
	C462.048889,327.626526 462.161499,304.302826 461.951172,280.981995 
	C461.910217,276.437134 463.122101,275.002930 467.795959,275.050415 
	C490.616547,275.282349 513.440796,275.155731 537.191101,275.156128 
M699.066956,240.700104 
	C699.066956,249.362534 699.198853,258.027405 699.037659,266.686859 
	C698.759155,281.650879 699.459778,296.757446 697.602051,311.534241 
	C695.575073,327.657928 687.864563,341.306610 670.620422,345.723083 
	C658.964844,348.708252 647.288269,347.638153 638.121826,338.440277 
	C632.593445,332.892975 630.341064,325.473022 630.209229,317.912567 
	C629.773804,292.936432 629.822998,267.951599 629.723450,242.969971 
	C629.676941,231.311356 629.376587,231.064514 617.793884,232.240173 
	C614.906128,232.533295 613.889893,233.600586 613.902100,236.621185 
	C614.015198,264.607483 613.440063,292.608521 614.186035,320.575409 
	C614.580933,335.378723 619.421631,349.070160 634.461975,355.746887 
	C653.540161,364.216095 682.958801,361.816650 696.951843,341.222870 
	C697.565491,340.319763 697.830017,339.179443 698.257263,338.149628 
	C698.974182,338.559448 699.691101,338.969269 700.408020,339.379089 
	C700.408020,341.949829 700.371643,344.521179 700.414307,347.091217 
	C700.595947,358.020844 698.431335,356.928558 710.619263,357.135498 
	C714.139465,357.195221 715.219116,355.898712 715.212463,352.460693 
	C715.137329,313.646027 715.211670,274.831024 715.051941,236.016876 
	C715.046814,234.760498 713.195496,232.962448 711.808167,232.406113 
	C710.227966,231.772446 708.202087,232.247131 706.369934,232.245239 
	C699.043823,232.237686 699.043823,232.238434 699.066956,240.700104 
M751.523132,245.825668 
	C752.046204,247.978897 753.016602,250.130463 753.024536,252.285583 
	C753.125183,279.612457 753.053650,306.939911 753.099915,334.267059 
	C753.121094,346.799255 757.356079,354.504333 766.635864,356.563049 
	C772.703491,357.909149 779.208679,357.689270 785.500610,357.521820 
	C794.672852,357.277740 794.575562,357.033478 794.118652,348.012512 
	C793.989197,345.457397 793.180176,344.369843 790.572327,344.521179 
	C787.415344,344.704407 784.243103,344.792999 781.082703,344.714813 
	C773.837769,344.535583 770.336548,341.471893 769.328857,334.446320 
	C768.905640,331.495758 768.486328,328.510590 768.478027,325.540009 
	C768.408142,300.379150 768.456909,275.217957 768.403076,250.057022 
	C768.395691,246.592285 769.984924,245.293930 773.300842,245.382797 
	C777.463562,245.494354 781.632324,245.462479 785.797180,245.402527 
	C795.257080,245.266373 793.916199,246.883652 794.058655,236.727402 
	C794.060974,236.560791 794.043396,236.392105 794.063232,236.227798 
	C794.407898,233.374817 793.031006,232.359711 790.299194,232.406876 
	C785.135376,232.496048 779.968689,232.436905 774.803223,232.421387 
	C768.606079,232.402756 768.437378,232.226501 768.434998,225.907578 
	C768.431152,215.786362 768.433899,205.665146 768.433899,194.897568 
	C764.277588,194.897568 760.658325,195.014282 757.050476,194.861313 
	C754.065125,194.734741 752.920837,195.776367 753.015137,198.905960 
	C753.225891,205.898163 753.144531,212.901398 753.080261,219.899200 
	C752.946533,234.466309 754.962830,232.199417 740.751343,232.430664 
	C730.556396,232.596527 731.821167,230.558411 731.613037,241.873993 
	C731.557739,244.879349 732.897705,245.522858 735.546997,245.460342 
	C740.541565,245.342514 745.542053,245.471191 751.523132,245.825668 
M838.547119,327.116577 
	C838.508179,301.478668 838.492920,275.840637 838.401672,250.202927 
	C838.389648,246.839523 839.724854,245.291550 843.148315,245.383438 
	C847.307617,245.495071 851.472717,245.459106 855.634277,245.403290 
	C865.309326,245.273529 863.778137,246.812256 864.127197,236.906052 
	C864.255188,233.272705 862.836914,232.241928 859.481018,232.378754 
	C854.993225,232.561722 850.492310,232.421188 845.997070,232.422058 
	C838.430847,232.423523 838.432617,232.424347 838.434570,225.113159 
	C838.436829,216.622116 838.451111,208.131027 838.420532,199.640106 
	C838.415344,198.209824 838.209473,196.780258 838.060730,194.899185 
	C833.881165,194.899185 830.084106,194.953873 826.289429,194.880737 
	C823.577393,194.828476 822.991699,196.224091 823.035095,198.659897 
	C823.159790,205.650360 823.090271,212.644348 823.091370,219.636948 
	C823.093506,232.418564 823.091797,232.418579 810.533630,232.420914 
	C800.937927,232.422699 801.039673,232.416855 801.593811,242.081635 
	C801.746948,244.753662 802.767029,245.538620 805.245300,245.452042 
	C808.903687,245.324234 812.569763,245.409332 816.232544,245.413696 
	C823.084167,245.421860 823.090881,245.424805 823.091003,252.430176 
	C823.091492,279.734680 822.983459,307.039795 823.143127,334.343353 
	C823.196350,343.442993 824.494202,353.174591 834.924255,355.582581 
	C843.778259,357.626740 853.294800,356.816956 862.521545,357.183960 
	C862.968750,357.201782 863.845764,356.396118 863.850952,355.965820 
	C863.892944,352.497406 864.250854,348.899323 863.379517,345.644012 
	C863.152100,344.794342 858.937622,344.726013 856.565918,344.783112 
	C842.624512,345.118774 840.173035,343.024292 839.075317,329.482239 
	C839.035400,328.990601 838.850586,328.510742 838.547119,327.116577 
M1009.983276,238.871185 
	C1009.983276,278.105225 1009.983276,317.339233 1009.983276,357.054016 
	C1014.127502,357.054016 1017.453491,356.832794 1020.737427,357.109863 
	C1024.866211,357.458221 1026.189697,355.955414 1026.151123,351.755890 
	C1025.958130,330.759552 1025.870728,309.758179 1026.130981,288.763367 
	C1026.276733,277.001831 1030.564087,266.730011 1039.131836,258.405243 
	C1047.150146,250.614273 1056.775879,246.877289 1067.873291,246.361298 
	C1069.303589,246.294785 1071.726074,244.710510 1071.855835,243.612625 
	C1072.335815,239.553101 1072.046875,235.402649 1072.046875,230.922333 
	C1050.734131,229.157013 1036.158936,238.697449 1025.229980,256.049042 
	C1024.446899,250.897522 1024.499878,246.195023 1024.435913,241.494095 
	C1024.298584,231.387619 1026.113892,232.660950 1015.495728,232.329376 
	C1011.155640,232.193802 1009.200439,233.524475 1009.983276,238.871185 
M585.806213,185.777649 
	C580.829346,185.352814 575.852478,184.927994 570.685669,184.486938 
	C570.553284,186.715286 570.426575,187.855255 570.426392,188.995239 
	C570.417542,243.263870 570.419556,297.532501 570.420593,351.801147 
	C570.420593,352.467010 570.165283,353.307922 570.475098,353.764526 
	C571.269592,354.935333 572.242798,356.766724 573.274170,356.857178 
	C577.345215,357.214294 581.466125,357.003693 586.048828,357.003693 
	C586.048828,299.704254 586.048828,243.138275 585.806213,185.777649 
z"/>
<path fill="#03C8FA" opacity="1.000000" stroke="none" 
	d="
M261.820801,68.816185 
	C266.632355,62.076050 272.826141,60.624683 280.632294,60.712593 
	C316.951050,61.121593 353.276978,60.894691 389.600342,60.895309 
	C391.563019,60.895344 393.525696,60.895317 396.801819,60.895317 
	C395.006744,63.289028 394.053192,64.935326 392.754211,66.236893 
	C371.605652,87.427399 350.438416,108.599426 329.223297,129.723312 
	C311.160889,147.708069 292.972565,165.566666 274.950226,183.591354 
	C258.935486,199.608154 243.119049,215.823135 227.127060,231.862869 
	C214.511169,244.516388 201.712341,256.987396 189.083008,269.627686 
	C171.083191,287.643097 153.127975,305.703430 135.226547,323.816620 
	C126.935745,332.205475 126.994545,332.301697 118.618835,323.933197 
	C101.465538,306.794739 84.406685,289.560730 67.135475,272.542114 
	C63.614975,269.073090 63.547802,266.908783 67.162582,263.307526 
	C131.114395,199.594528 194.932816,135.747635 258.778198,71.927826 
	C259.720520,70.985901 260.639557,70.020668 261.820801,68.816185 
z"/>
<path fill="#06C8FA" opacity="1.000000" stroke="none" 
	d="
M216.599396,305.531006 
	C223.165115,298.777588 229.673294,291.967041 236.309769,285.283905 
	C246.727615,274.792847 257.169098,264.322968 267.771942,254.020462 
	C269.251770,252.582565 271.701996,251.369324 273.708130,251.361420 
	C313.198578,251.205582 352.689850,251.230438 392.180786,251.300751 
	C393.453766,251.303040 394.725220,252.174286 395.997375,252.640442 
	C395.255188,253.842148 394.712982,255.243362 393.741852,256.216644 
	C360.243958,289.790039 326.700226,323.317810 293.185974,356.874939 
	C291.197998,358.865448 289.399719,361.045410 287.118530,363.333008 
	C286.532166,363.399048 286.333710,363.279327 285.926910,362.875610 
	C284.522034,361.466156 283.283752,360.386047 282.121429,359.229584 
	C275.298523,352.441162 268.506775,345.621399 261.678284,338.838593 
	C255.025299,332.230103 248.337509,325.656677 241.671204,319.061615 
	C236.322021,313.769562 231.118042,308.315765 225.509628,303.315063 
	C224.527908,302.439728 221.791183,303.189178 220.003769,303.686768 
	C218.890900,303.996613 218.038803,305.243134 216.951202,305.935486 
	C216.832748,305.801697 216.599396,305.531006 216.599396,305.531006 
z"/>
<path fill="#035A9B" opacity="1.000000" stroke="none" 
	d="
M286.128601,363.169678 
	C286.333710,363.279327 286.532166,363.399048 286.829926,363.538696 
	C296.946320,373.683319 306.939148,383.835571 316.971161,393.948853 
	C333.510254,410.622009 350.126068,427.219391 366.609161,443.947632 
	C376.470795,453.955872 386.141479,464.152283 396.237274,474.615723 
	C395.102081,474.758148 393.788055,475.066284 392.473816,475.067108 
	C352.981934,475.092255 313.489960,475.115021 273.998413,475.004272 
	C272.019745,474.998718 269.476135,474.369537 268.154358,473.061737 
	C252.685867,457.757019 237.401215,442.266510 222.282532,426.474243 
	C222.712845,426.097595 222.928665,426.071777 223.379211,426.151245 
	C224.067383,426.503357 224.520844,426.750214 225.352051,426.994446 
	C229.137146,425.619171 232.544525,424.246552 236.274200,422.878296 
	C237.103149,422.285614 237.609787,421.688538 238.501602,421.084412 
	C239.912354,421.022095 240.937927,420.966858 242.285492,420.902740 
	C243.104675,420.287628 243.601868,419.681396 244.412735,419.064789 
	C245.143280,419.018494 245.560150,418.982574 246.349335,418.926025 
	C249.816055,417.606445 252.910477,416.307495 256.379944,415.009644 
	C258.502930,414.340485 260.250854,413.670227 262.403290,413.002258 
	C272.263092,412.461487 277.420471,406.196503 275.177002,397.350769 
	C273.485718,390.682312 273.736908,384.657745 278.420593,379.258423 
	C280.580231,376.768799 282.492981,374.034698 284.850250,371.755402 
	C287.167450,369.514862 287.499451,367.347321 285.881042,364.456665 
	C285.983490,363.853394 286.056030,363.511536 286.128601,363.169678 
z"/>
<path fill="#0C0C0D" opacity="1.000000" stroke="none" 
	d="
M536.727417,275.156036 
	C513.440796,275.155731 490.616547,275.282349 467.795959,275.050415 
	C463.122101,275.002930 461.910217,276.437134 461.951172,280.981995 
	C462.161499,304.302826 462.048889,327.626526 462.049103,350.949249 
	C462.049103,352.750732 462.049103,354.552246 462.049103,357.005646 
	C456.928314,357.005646 452.302155,357.136444 447.695801,356.892944 
	C446.796844,356.845428 445.721558,355.476410 445.198090,354.471802 
	C444.786896,353.682495 445.094055,352.515259 445.094025,351.515930 
	C445.092957,297.540497 445.130615,243.565002 445.011414,189.589844 
	C445.003174,185.869476 445.990753,184.705368 449.747742,184.719040 
	C483.232086,184.841019 516.717163,184.828339 550.201599,184.731354 
	C553.457825,184.721924 554.584595,185.681931 554.491089,188.995041 
	C554.142456,201.353226 556.068726,199.147629 544.719482,199.202301 
	C519.231689,199.325104 493.741119,199.396530 468.255951,199.108627 
	C463.009186,199.049347 461.856689,200.713028 461.940796,205.622269 
	C462.223267,222.109924 462.180450,238.607208 461.958801,255.096710 
	C461.900421,259.441376 463.148651,260.842438 467.590973,260.804993 
	C491.078613,260.607117 514.568787,260.711731 538.058105,260.711487 
	C539.846130,260.711487 541.634216,260.711487 544.056946,260.711487 
	C544.056946,265.044281 544.416260,268.863770 543.964966,272.584930 
	C543.415955,277.111938 539.528259,274.432953 536.727417,275.156036 
z"/>
<path fill="#0E0D0E" opacity="1.000000" stroke="none" 
	d="
M975.933105,315.014282 
	C980.007690,314.994080 984.082336,314.973877 988.756958,315.373352 
	C988.869019,318.185547 988.581604,320.640411 987.860413,322.960449 
	C983.246948,337.801941 975.102356,349.717163 960.129395,355.833679 
	C957.446716,356.929565 954.724915,357.929535 952.021179,358.973785 
	C951.282166,359.029816 950.543213,359.085846 948.992798,359.037079 
	C940.125793,359.052063 932.070190,359.171875 924.014648,359.291687 
	C923.224609,359.179810 922.434631,359.067963 921.089722,358.637695 
	C919.055359,357.967163 917.575867,357.615021 916.096313,357.262878 
	C915.607117,357.137146 915.117920,357.011414 914.175476,356.488007 
	C909.277771,353.718811 904.833374,351.347290 900.388916,348.975739 
	C900.388916,348.975739 900.229004,348.757446 900.151672,348.420532 
	C899.504150,347.739044 898.933960,347.394440 898.363770,347.049866 
	C898.363770,347.049866 898.197937,346.801483 898.124390,346.453430 
	C897.489197,345.756622 896.927490,345.407806 896.365784,345.059021 
	C896.365784,345.059021 896.199341,344.800293 896.113281,344.398590 
	C894.055969,341.347198 891.691895,338.903564 890.176392,336.014740 
	C879.451721,315.570770 877.819336,294.038422 883.127502,271.827209 
	C885.450134,262.108521 889.920227,253.346710 895.887634,245.344833 
	C895.887634,245.344833 896.153320,245.150650 896.502686,245.069992 
	C897.184875,244.429474 897.517700,243.869629 897.850464,243.309769 
	C897.850464,243.309769 898.132568,243.120239 898.482971,243.036255 
	C899.172668,242.410049 899.511963,241.867859 899.851257,241.325684 
	C899.851257,241.325684 900.133057,241.159348 900.496033,241.091599 
	C901.224976,240.465439 901.591003,239.907028 901.957031,239.348633 
	C901.957031,239.348633 902.203247,239.228775 902.614014,239.161346 
	C905.438965,237.680878 907.736084,235.989655 910.292053,234.913376 
	C915.416992,232.755386 920.683411,230.933487 925.891418,228.972855 
	C926.984985,228.925949 928.078613,228.879044 930.005554,228.957352 
	C934.578613,228.959503 938.318298,228.836441 942.057983,228.713379 
	C943.110352,228.784134 944.162781,228.854904 945.871460,229.178848 
	C947.929688,229.935104 949.297974,230.583939 950.739258,230.917130 
	C958.822937,232.785904 965.839233,236.529816 971.691040,242.455597 
	C987.220337,258.181183 990.896729,277.723145 989.900269,298.782990 
	C979.424255,298.883270 968.948486,299.043274 958.472229,299.071045 
	C938.336060,299.124390 918.199707,299.102814 897.234009,299.143066 
	C896.315308,302.662903 895.606689,306.273163 896.260986,309.616730 
	C897.791626,317.438507 899.476990,325.360535 905.919556,331.038330 
	C905.919556,331.038330 905.964539,331.036469 905.914490,331.395874 
	C907.387207,333.266693 908.909973,334.778107 910.432800,336.289551 
	C910.432800,336.289520 910.534180,336.460419 910.656128,336.834381 
	C916.705872,343.031464 923.606262,346.674774 932.109436,346.725708 
	C934.751343,346.757294 937.393188,346.788879 940.835938,346.924255 
	C943.746765,346.372131 945.856812,345.716248 947.966797,345.060364 
	C948.408691,345.007263 948.850586,344.954132 949.922729,344.965759 
	C951.849121,344.317871 953.145264,343.605255 954.441345,342.892639 
	C954.651428,342.845154 954.861511,342.797638 955.630615,342.652710 
	C956.862671,341.945648 957.535706,341.335999 958.208740,340.726379 
	C958.208740,340.726379 958.563293,340.620087 958.936401,340.539520 
	C959.535889,340.041687 959.762329,339.624390 959.988770,339.207092 
	C959.988770,339.207123 960.153992,339.184265 960.518677,339.143433 
	C963.401184,336.273132 966.419128,333.741302 968.320862,330.545258 
	C971.259338,325.606903 973.434326,320.214233 975.933105,315.014282 
M924.499878,285.402527 
	C939.801514,285.405151 955.103394,285.368622 970.404724,285.439636 
	C973.964172,285.456146 975.861145,284.597107 974.628113,280.497894 
	C973.533569,276.858978 973.197937,272.965454 971.881958,269.424103 
	C966.325989,254.471848 956.263000,244.373489 939.933594,242.333160 
	C926.264465,240.625229 915.246216,246.255371 906.914612,256.882782 
	C900.590210,264.949860 897.143250,274.291168 896.066833,285.402679 
	C905.631714,285.402679 914.565796,285.402679 924.499878,285.402527 
z"/>
<path fill="#111013" opacity="1.000000" stroke="none" 
	d="
M699.067261,240.236877 
	C699.043823,232.238434 699.043823,232.237686 706.369934,232.245239 
	C708.202087,232.247131 710.227966,231.772446 711.808167,232.406113 
	C713.195496,232.962448 715.046814,234.760498 715.051941,236.016876 
	C715.211670,274.831024 715.137329,313.646027 715.212463,352.460693 
	C715.219116,355.898712 714.139465,357.195221 710.619263,357.135498 
	C698.431335,356.928558 700.595947,358.020844 700.414307,347.091217 
	C700.371643,344.521179 700.408020,341.949829 700.408020,339.379089 
	C699.691101,338.969269 698.974182,338.559448 698.257263,338.149628 
	C697.830017,339.179443 697.565491,340.319763 696.951843,341.222870 
	C682.958801,361.816650 653.540161,364.216095 634.461975,355.746887 
	C619.421631,349.070160 614.580933,335.378723 614.186035,320.575409 
	C613.440063,292.608521 614.015198,264.607483 613.902100,236.621185 
	C613.889893,233.600586 614.906128,232.533295 617.793884,232.240173 
	C629.376587,231.064514 629.676941,231.311356 629.723450,242.969971 
	C629.822998,267.951599 629.773804,292.936432 630.209229,317.912567 
	C630.341064,325.473022 632.593445,332.892975 638.121826,338.440277 
	C647.288269,347.638153 658.964844,348.708252 670.620422,345.723083 
	C687.864563,341.306610 695.575073,327.657928 697.602051,311.534241 
	C699.459778,296.757446 698.759155,281.650879 699.037659,266.686859 
	C699.198853,258.027405 699.066956,249.362534 699.067261,240.236877 
z"/>
<path fill="#0F0D0C" opacity="1.000000" stroke="none" 
	d="
M751.031616,245.661530 
	C745.542053,245.471191 740.541565,245.342514 735.546997,245.460342 
	C732.897705,245.522858 731.557739,244.879349 731.613037,241.873993 
	C731.821167,230.558411 730.556396,232.596527 740.751343,232.430664 
	C754.962830,232.199417 752.946533,234.466309 753.080261,219.899200 
	C753.144531,212.901398 753.225891,205.898163 753.015137,198.905960 
	C752.920837,195.776367 754.065125,194.734741 757.050476,194.861313 
	C760.658325,195.014282 764.277588,194.897568 768.433899,194.897568 
	C768.433899,205.665146 768.431152,215.786362 768.434998,225.907578 
	C768.437378,232.226501 768.606079,232.402756 774.803223,232.421387 
	C779.968689,232.436905 785.135376,232.496048 790.299194,232.406876 
	C793.031006,232.359711 794.407898,233.374817 794.063232,236.227798 
	C794.043396,236.392105 794.060974,236.560791 794.058655,236.727402 
	C793.916199,246.883652 795.257080,245.266373 785.797180,245.402527 
	C781.632324,245.462479 777.463562,245.494354 773.300842,245.382797 
	C769.984924,245.293930 768.395691,246.592285 768.403076,250.057022 
	C768.456909,275.217957 768.408142,300.379150 768.478027,325.540009 
	C768.486328,328.510590 768.905640,331.495758 769.328857,334.446320 
	C770.336548,341.471893 773.837769,344.535583 781.082703,344.714813 
	C784.243103,344.792999 787.415344,344.704407 790.572327,344.521179 
	C793.180176,344.369843 793.989197,345.457397 794.118652,348.012512 
	C794.575562,357.033478 794.672852,357.277740 785.500610,357.521820 
	C779.208679,357.689270 772.703491,357.909149 766.635864,356.563049 
	C757.356079,354.504333 753.121094,346.799255 753.099915,334.267059 
	C753.053650,306.939911 753.125183,279.612457 753.024536,252.285583 
	C753.016602,250.130463 752.046204,247.978897 751.031616,245.661530 
z"/>
<path fill="#0F0D0C" opacity="1.000000" stroke="none" 
	d="
M838.640259,327.570984 
	C838.850586,328.510742 839.035400,328.990601 839.075317,329.482239 
	C840.173035,343.024292 842.624512,345.118774 856.565918,344.783112 
	C858.937622,344.726013 863.152100,344.794342 863.379517,345.644012 
	C864.250854,348.899323 863.892944,352.497406 863.850952,355.965820 
	C863.845764,356.396118 862.968750,357.201782 862.521545,357.183960 
	C853.294800,356.816956 843.778259,357.626740 834.924255,355.582581 
	C824.494202,353.174591 823.196350,343.442993 823.143127,334.343353 
	C822.983459,307.039795 823.091492,279.734680 823.091003,252.430176 
	C823.090881,245.424805 823.084167,245.421860 816.232544,245.413696 
	C812.569763,245.409332 808.903687,245.324234 805.245300,245.452042 
	C802.767029,245.538620 801.746948,244.753662 801.593811,242.081635 
	C801.039673,232.416855 800.937927,232.422699 810.533630,232.420914 
	C823.091797,232.418579 823.093506,232.418564 823.091370,219.636948 
	C823.090271,212.644348 823.159790,205.650360 823.035095,198.659897 
	C822.991699,196.224091 823.577393,194.828476 826.289429,194.880737 
	C830.084106,194.953873 833.881165,194.899185 838.060730,194.899185 
	C838.209473,196.780258 838.415344,198.209824 838.420532,199.640106 
	C838.451111,208.131027 838.436829,216.622116 838.434570,225.113159 
	C838.432617,232.424347 838.430847,232.423523 845.997070,232.422058 
	C850.492310,232.421188 854.993225,232.561722 859.481018,232.378754 
	C862.836914,232.241928 864.255188,233.272705 864.127197,236.906052 
	C863.778137,246.812256 865.309326,245.273529 855.634277,245.403290 
	C851.472717,245.459106 847.307617,245.495071 843.148315,245.383438 
	C839.724854,245.291550 838.389648,246.839523 838.401672,250.202927 
	C838.492920,275.840637 838.508179,301.478668 838.640259,327.570984 
z"/>
<path fill="#110C0F" opacity="1.000000" stroke="none" 
	d="
M1009.982544,238.421997 
	C1009.200439,233.524475 1011.155640,232.193802 1015.495728,232.329376 
	C1026.113892,232.660950 1024.298584,231.387619 1024.435913,241.494095 
	C1024.499878,246.195023 1024.446899,250.897522 1025.229980,256.049042 
	C1036.158936,238.697449 1050.734131,229.157013 1072.046875,230.922333 
	C1072.046875,235.402649 1072.335815,239.553101 1071.855835,243.612625 
	C1071.726074,244.710510 1069.303589,246.294785 1067.873291,246.361298 
	C1056.775879,246.877289 1047.150146,250.614273 1039.131836,258.405243 
	C1030.564087,266.730011 1026.276733,277.001831 1026.130981,288.763367 
	C1025.870728,309.758179 1025.958130,330.759552 1026.151123,351.755890 
	C1026.189697,355.955414 1024.866211,357.458221 1020.737427,357.109863 
	C1017.453491,356.832794 1014.127502,357.054016 1009.983276,357.054016 
	C1009.983276,317.339233 1009.983276,278.105225 1009.982544,238.421997 
z"/>
<path fill="#0F0C0F" opacity="1.000000" stroke="none" 
	d="
M585.927490,186.174957 
	C586.048828,243.138275 586.048828,299.704254 586.048828,357.003693 
	C581.466125,357.003693 577.345215,357.214294 573.274170,356.857178 
	C572.242798,356.766724 571.269592,354.935333 570.475098,353.764526 
	C570.165283,353.307922 570.420593,352.467010 570.420593,351.801147 
	C570.419556,297.532501 570.417542,243.263870 570.426392,188.995239 
	C570.426575,187.855255 570.553284,186.715286 570.685669,184.486938 
	C575.852478,184.927994 580.829346,185.352814 585.927490,186.174957 
z"/>
<path fill="#87AABE" opacity="1.000000" stroke="none" 
	d="
M990.098694,299.033020 
	C990.896729,277.723145 987.220337,258.181183 971.691040,242.455597 
	C965.839233,236.529816 958.822937,232.785904 950.739258,230.917130 
	C949.297974,230.583939 947.929688,229.935104 946.267334,229.175171 
	C951.431030,230.365524 957.370850,230.851044 962.186279,233.433243 
	C979.265503,242.591797 987.761169,257.915222 990.733704,276.570923 
	C991.720825,282.766083 992.193909,289.058624 992.546021,295.326660 
	C992.617493,296.599335 991.088379,297.961914 990.098694,299.033020 
z"/>
<path fill="#06C8FA" opacity="1.000000" stroke="none" 
	d="
M223.144485,426.045959 
	C222.928665,426.071777 222.712845,426.097595 222.173523,426.159058 
	C216.660721,421.422394 211.340576,416.783722 206.306366,411.853088 
	C190.228668,396.106232 174.257111,380.251038 157.429047,363.632294 
	C161.876328,359.429993 165.892120,355.635406 170.356262,351.835754 
	C170.804611,351.830688 171.068649,352.068970 170.990662,352.394348 
	C167.635864,356.152527 164.359070,359.585358 160.512650,363.614929 
	C165.565475,368.459229 170.399246,372.951385 175.074738,377.602661 
	C189.448837,391.902252 203.737457,406.287933 218.137512,420.561249 
	C219.599380,422.010254 221.590500,422.925385 223.259308,424.410461 
	C223.169891,425.170441 223.157181,425.608185 223.144485,426.045959 
z"/>
<path fill="#87AABE" opacity="1.000000" stroke="none" 
	d="
M895.576355,245.265762 
	C889.920227,253.346710 885.450134,262.108521 883.127502,271.827209 
	C877.819336,294.038422 879.451721,315.570770 890.176392,336.014740 
	C891.691895,338.903564 894.055969,341.347198 895.985718,344.312622 
	C893.067322,341.221466 889.294067,338.236877 887.458191,334.339569 
	C875.086121,308.075714 875.123352,281.587799 887.547180,255.332581 
	C889.325378,251.574722 892.653992,248.550461 895.576355,245.265762 
z"/>
<path fill="#87AABE" opacity="1.000000" stroke="none" 
	d="
M952.259277,359.224091 
	C954.724915,357.929535 957.446716,356.929565 960.129395,355.833679 
	C975.102356,349.717163 983.246948,337.801941 987.860413,322.960449 
	C988.581604,320.640411 988.869019,318.185547 989.226807,315.385681 
	C989.932007,315.820221 991.610413,316.831360 991.480347,317.479462 
	C987.638489,336.616211 974.981323,355.125031 953.469849,359.637909 
	C953.170288,359.700806 952.822632,359.533997 952.259277,359.224091 
z"/>
<path fill="#9DAFBA" opacity="1.000000" stroke="none" 
	d="
M905.978271,330.668213 
	C899.476990,325.360535 897.791626,317.438507 896.260986,309.616730 
	C895.606689,306.273163 896.315308,302.662903 896.783203,299.230194 
	C897.671326,310.324554 900.631348,320.661285 905.978271,330.668213 
z"/>
<path fill="#87AABE" opacity="1.000000" stroke="none" 
	d="
M924.105347,359.629211 
	C932.070190,359.171875 940.125793,359.052063 948.627075,359.097229 
	C942.539124,363.484131 935.357422,361.256195 928.418091,361.247803 
	C927.010254,361.246094 925.603394,360.415283 924.105347,359.629211 
z"/>
<path fill="#9DAFBA" opacity="1.000000" stroke="none" 
	d="
M975.762451,314.769287 
	C973.434326,320.214233 971.259338,325.606903 968.320862,330.545258 
	C966.419128,333.741302 963.401184,336.273132 960.549927,339.066101 
	C963.471741,334.028625 966.843384,329.097931 969.925537,323.992462 
	C971.170837,321.929626 971.619263,319.398315 972.752197,317.249908 
	C973.332947,316.148468 974.622559,315.420837 975.762451,314.769287 
z"/>
<path fill="#87AABE" opacity="1.000000" stroke="none" 
	d="
M925.649902,228.719940 
	C920.683411,230.933487 915.416992,232.755386 910.292053,234.913376 
	C907.736084,235.989655 905.438965,237.680878 902.698364,239.053513 
	C905.536255,236.745239 908.444580,233.897995 911.930481,232.358002 
	C916.168823,230.485504 920.893860,229.714523 925.649902,228.719940 
z"/>
<path fill="#9DAFBA" opacity="1.000000" stroke="none" 
	d="
M932.001465,346.392120 
	C923.606262,346.674774 916.705872,343.031464 910.741577,336.885132 
	C913.025146,337.894653 915.244873,339.461121 917.686890,340.509979 
	C922.355530,342.515167 927.150757,344.225708 932.001465,346.392120 
z"/>
<path fill="#06C8FA" opacity="1.000000" stroke="none" 
	d="
M184.605545,337.538818 
	C189.039627,332.976807 193.473709,328.414825 198.354172,323.840332 
	C198.800537,323.827789 199.068207,324.068359 198.990189,324.393799 
	C194.298157,329.169556 189.684143,333.619873 184.953125,337.938110 
	C184.836136,337.805969 184.605545,337.538818 184.605545,337.538818 
z"/>
<path fill="#06C8FA" opacity="1.000000" stroke="none" 
	d="
M170.671402,351.712891 
	C175.019485,346.999969 179.500793,342.404846 184.293823,337.674255 
	C184.605545,337.538818 184.836136,337.805969 184.874527,338.263336 
	C180.298157,343.170105 175.683395,347.619537 171.068649,352.068970 
	C171.068649,352.068970 170.804611,351.830688 170.671402,351.712891 
z"/>
<path fill="#06C8FA" opacity="1.000000" stroke="none" 
	d="
M198.665604,323.708740 
	C202.992691,319.016083 207.454697,314.442474 212.360474,309.850098 
	C212.804260,309.831329 213.069748,310.071045 212.991394,310.396210 
	C208.298096,315.170380 203.683151,319.619385 199.068207,324.068359 
	C199.068207,324.068359 198.800537,323.827789 198.665604,323.708740 
z"/>
<path fill="#87AABE" opacity="1.000000" stroke="none" 
	d="
M900.330322,349.294556 
	C904.833374,351.347290 909.277771,353.718811 913.803589,356.414795 
	C909.347290,354.363983 904.809509,351.988678 900.330322,349.294556 
z"/>
<path fill="#87AABE" opacity="1.000000" stroke="none" 
	d="
M941.927673,228.367447 
	C938.318298,228.836441 934.578613,228.959503 930.412109,228.900940 
	C933.922668,228.486710 937.860046,228.254105 941.927673,228.367447 
z"/>
<path fill="#9DAFBA" opacity="1.000000" stroke="none" 
	d="
M947.759949,344.797516 
	C945.856812,345.716248 943.746765,346.372131 941.271667,346.856445 
	C943.122070,345.968170 945.337585,345.251434 947.759949,344.797516 
z"/>
<path fill="#9DAFBA" opacity="1.000000" stroke="none" 
	d="
M910.585205,335.970459 
	C908.909973,334.778107 907.387207,333.266693 905.907959,331.417419 
	C907.546814,332.603455 909.142273,334.127380 910.585205,335.970459 
z"/>
<path fill="#87AABE" opacity="1.000000" stroke="none" 
	d="
M916.115234,357.570618 
	C917.575867,357.615021 919.055359,357.967163 920.691284,358.614075 
	C919.276489,358.565338 917.705322,358.221832 916.115234,357.570618 
z"/>
<path fill="#9DAFBA" opacity="1.000000" stroke="none" 
	d="
M954.148193,342.691162 
	C953.145264,343.605255 951.849121,344.317871 950.245483,344.879272 
	C951.243652,343.981934 952.549377,343.235809 954.148193,342.691162 
z"/>
<path fill="#9DAFBA" opacity="1.000000" stroke="none" 
	d="
M957.917847,340.536285 
	C957.535706,341.335999 956.862671,341.945648 955.908569,342.488037 
	C956.293945,341.729279 956.960388,341.037720 957.917847,340.536285 
z"/>
<path fill="#06C8FA" opacity="1.000000" stroke="none" 
	d="
M212.669876,309.713318 
	C213.009979,308.990997 213.484482,308.386749 214.372894,307.798859 
	C214.786819,307.815216 215.065704,308.065643 215.002106,308.373871 
	C214.315567,309.145081 213.692657,309.608063 213.069748,310.071045 
	C213.069748,310.071045 212.804260,309.831329 212.669876,309.713318 
z"/>
<path fill="#06C8FA" opacity="1.000000" stroke="none" 
	d="
M214.647064,307.690369 
	C215.016571,306.958771 215.525848,306.351990 216.317261,305.638123 
	C216.599396,305.531006 216.832748,305.801697 216.885864,306.243042 
	C216.314545,307.144806 215.690125,307.605225 215.065704,308.065643 
	C215.065704,308.065643 214.786819,307.815216 214.647064,307.690369 
z"/>
<path fill="#87AABE" opacity="1.000000" stroke="none" 
	d="
M897.575073,243.221893 
	C897.517700,243.869629 897.184875,244.429474 896.587036,244.928757 
	C896.647949,244.290131 896.973816,243.712067 897.575073,243.221893 
z"/>
<path fill="#87AABE" opacity="1.000000" stroke="none" 
	d="
M898.286133,347.334045 
	C898.933960,347.394440 899.504150,347.739044 900.032471,348.356506 
	C899.396545,348.292358 898.802490,347.955322 898.286133,347.334045 
z"/>
<path fill="#87AABE" opacity="1.000000" stroke="none" 
	d="
M896.281799,345.339630 
	C896.927490,345.407806 897.489197,345.756622 897.998291,346.373444 
	C897.363098,346.301056 896.780457,345.960632 896.281799,345.339630 
z"/>
<path fill="#87AABE" opacity="1.000000" stroke="none" 
	d="
M901.676514,239.258820 
	C901.591003,239.907028 901.224976,240.465439 900.593262,240.959961 
	C900.683655,240.320404 901.039795,239.744720 901.676514,239.258820 
z"/>
<path fill="#87AABE" opacity="1.000000" stroke="none" 
	d="
M899.579956,241.228271 
	C899.511963,241.867859 899.172668,242.410049 898.577148,242.894775 
	C898.650146,242.268494 898.979370,241.699677 899.579956,241.228271 
z"/>
<path fill="#9DAFBA" opacity="1.000000" stroke="none" 
	d="
M959.694702,339.126465 
	C959.762329,339.624390 959.535889,340.041687 959.054871,340.397400 
	C959.000427,339.905823 959.200500,339.475830 959.694702,339.126465 
z"/>
<path fill="#00B7F7" opacity="1.000000" stroke="none" 
	d="
M215.002106,308.373871 
	C215.690125,307.605225 216.314545,307.144806 217.004318,306.376831 
	C218.038803,305.243134 218.890900,303.996613 220.003769,303.686768 
	C221.791183,303.189178 224.527908,302.439728 225.509628,303.315063 
	C231.118042,308.315765 236.322021,313.769562 241.671204,319.061615 
	C248.337509,325.656677 255.025299,332.230103 261.678284,338.838593 
	C268.506775,345.621399 275.298523,352.441162 282.121429,359.229584 
	C283.283752,360.386047 284.522034,361.466156 285.926910,362.875610 
	C286.056030,363.511536 285.983490,363.853394 285.538696,364.516052 
	C281.430298,368.507355 277.694153,372.177856 273.646851,375.933838 
	C272.574768,376.762054 271.813812,377.504883 270.715607,378.233521 
	C266.290009,382.499756 262.201660,386.780121 258.070709,391.056091 
	C258.028107,391.051727 258.074585,391.123657 257.747192,391.178864 
	C256.695190,392.185760 255.970642,393.137451 255.019714,394.330017 
	C253.223145,396.111328 251.652939,397.651794 249.741882,399.213257 
	C248.003662,400.346832 246.499802,401.350098 245.226501,402.590088 
	C237.899429,409.725098 230.626968,416.916199 223.335999,424.088257 
	C221.590500,422.925385 219.599380,422.010254 218.137512,420.561249 
	C203.737457,406.287933 189.448837,391.902252 175.074738,377.602661 
	C170.399246,372.951385 165.565475,368.459229 160.512650,363.614929 
	C164.359070,359.585358 167.635864,356.152527 170.990662,352.394348 
	C175.683395,347.619537 180.298157,343.170105 184.991516,338.395447 
	C189.684143,333.619873 194.298157,329.169556 198.990189,324.393799 
	C203.683151,319.619385 208.298096,315.170380 212.991394,310.396210 
	C213.692657,309.608063 214.315567,309.145081 215.002106,308.373871 
z"/>
<path fill="#004F8A" opacity="1.000000" stroke="none" 
	d="
M273.958008,375.848389 
	C277.694153,372.177856 281.430298,368.507355 285.508789,364.777466 
	C287.499451,367.347321 287.167450,369.514862 284.850250,371.755402 
	C282.492981,374.034698 280.580231,376.768799 278.420593,379.258423 
	C273.736908,384.657745 273.485718,390.682312 275.177002,397.350769 
	C277.420471,406.196503 272.263092,412.461487 262.452789,412.601196 
	C262.364319,410.254517 263.277802,408.128143 262.788513,406.398590 
	C260.303406,397.614258 264.198456,391.151123 269.520630,384.789185 
	C271.596313,382.307983 272.513275,378.857422 273.958008,375.848389 
z"/>
<path fill="#003354" opacity="1.000000" stroke="none" 
	d="
M235.951874,422.873901 
	C232.544525,424.246552 229.137146,425.619171 225.392456,426.649841 
	C226.152420,424.904999 227.126007,423.380341 228.367371,422.119324 
	C235.634094,414.737640 242.963470,407.417603 250.607513,400.139587 
	C250.632523,402.608124 249.982544,405.028290 250.084122,407.416473 
	C250.274658,411.895782 250.077103,416.068604 245.977020,418.946686 
	C245.560150,418.982574 245.143280,419.018494 244.084381,419.071533 
	C242.949402,419.696320 242.456467,420.303986 241.963531,420.911621 
	C240.937927,420.966858 239.912354,421.022095 238.173462,421.084076 
	C236.957397,421.685150 236.454636,422.279510 235.951874,422.873901 
z"/>
<path fill="#00477B" opacity="1.000000" stroke="none" 
	d="
M273.646881,375.933838 
	C272.513275,378.857422 271.596313,382.307983 269.520630,384.789185 
	C264.198456,391.151123 260.303406,397.614258 262.788513,406.398590 
	C263.277802,408.128143 262.364319,410.254517 262.048279,412.598938 
	C260.250854,413.670227 258.502930,414.340485 256.377380,414.561462 
	C256.008392,407.335907 254.343109,400.259430 259.603668,394.395081 
	C259.783386,394.194672 258.708771,392.869080 258.168854,391.833984 
	C258.118866,391.600067 258.074585,391.123657 258.074585,391.123657 
	C258.074585,391.123657 258.028107,391.051727 258.405334,391.004761 
	C262.872681,386.721100 266.962769,382.484406 271.052856,378.247681 
	C271.813812,377.504883 272.574768,376.762054 273.646881,375.933838 
z"/>
<path fill="#003E6A" opacity="1.000000" stroke="none" 
	d="
M258.218842,392.067932 
	C258.708771,392.869080 259.783386,394.194672 259.603668,394.395081 
	C254.343109,400.259430 256.008392,407.335907 256.002319,414.560364 
	C252.910477,416.307495 249.816055,417.606445 246.349335,418.926025 
	C250.077103,416.068604 250.274658,411.895782 250.084122,407.416473 
	C249.982544,405.028290 250.632523,402.608124 250.546082,399.921143 
	C250.148834,399.639893 250.082718,399.192261 250.082718,399.192261 
	C251.652939,397.651794 253.223145,396.111328 255.330505,394.303741 
	C256.651367,393.380371 257.435120,392.724152 258.218842,392.067932 
z"/>
<path fill="#00638A" opacity="1.000000" stroke="none" 
	d="
M249.741882,399.213257 
	C250.082718,399.192261 250.148834,399.639893 250.210266,399.858337 
	C242.963470,407.417603 235.634094,414.737640 228.367371,422.119324 
	C227.126007,423.380341 226.152420,424.904999 225.014709,426.652466 
	C224.520844,426.750214 224.067383,426.503357 223.379211,426.151245 
	C223.157181,425.608185 223.169891,425.170441 223.259308,424.410461 
	C230.626968,416.916199 237.899429,409.725098 245.226501,402.590088 
	C246.499802,401.350098 248.003662,400.346832 249.741882,399.213257 
z"/>
<path fill="#003E6A" opacity="1.000000" stroke="none" 
	d="
M242.285507,420.902740 
	C242.456467,420.303986 242.949402,419.696320 243.770691,419.081909 
	C243.601868,419.681396 243.104675,420.287628 242.285507,420.902740 
z"/>
<path fill="#003E6A" opacity="1.000000" stroke="none" 
	d="
M236.274185,422.878296 
	C236.454636,422.279510 236.957397,421.685150 237.788300,421.091125 
	C237.609787,421.688538 237.103149,422.285614 236.274185,422.878296 
z"/>
<path fill="#F8F9F8" opacity="1.000000" stroke="none" 
	d="
M923.999878,285.402588 
	C914.565796,285.402679 905.631714,285.402679 896.066833,285.402679 
	C897.143250,274.291168 900.590210,264.949860 906.914612,256.882782 
	C915.246216,246.255371 926.264465,240.625229 939.933594,242.333160 
	C956.263000,244.373489 966.325989,254.471848 971.881958,269.424103 
	C973.197937,272.965454 973.533569,276.858978 974.628113,280.497894 
	C975.861145,284.597107 973.964172,285.456146 970.404724,285.439636 
	C955.103394,285.368622 939.801514,285.405151 923.999878,285.402588 
z"/>
<path fill="#00638A" opacity="1.000000" stroke="none" 
	d="
M270.715637,378.233521 
	C266.962769,382.484406 262.872681,386.721100 258.447937,391.009155 
	C262.201660,386.780121 266.290009,382.499756 270.715637,378.233521 
z"/>
<path fill="#00638A" opacity="1.000000" stroke="none" 
	d="
M258.168854,391.833984 
	C257.435120,392.724152 256.651367,393.380371 255.556854,394.062866 
	C255.970642,393.137451 256.695190,392.185760 257.747192,391.178864 
	C258.074585,391.123657 258.118866,391.600067 258.168854,391.833984 
z"/>
</svg>